# xmcd
#
# Track frame offsets: 
#        150
#        17058
#        34211
#        54900
#        84799
#        110655
#        127110
#        146283
#        168617
#
# Disc length: 2520 seconds
#
# Revision: 0
# Processed by: cddbd v1.5.2PL0 Copyright (c) Steve Scherf et al.
# Submitted via: ExactAudioCopy v1.3
#
DISCID=7109d609
DTITLE=Ulf Myrvold - Old Memories
DYEAR=2018
DGENRE=Blues
TTITLE0=Sister devil
TTITLE1=500 missions
TTITLE2=All my horses
TTITLE3=Waiting adventures
TTITLE4=Keep your lamp trimmed and burning
TTITLE5=Crossroads
TTITLE6=Fixing to die
TTITLE7=Old memories
TTITLE8=Deathletter
EXTD=
EXTT0=
EXTT1=
EXTT2=
EXTT3=
EXTT4=
EXTT5=
EXTT6=
EXTT7=
EXTT8=
PLAYORDER=
